<svg width="93" height="93" viewBox="0 0 93 93" fill="none" xmlns="http://www.w3.org/2000/svg">
<g clip-path="url(#clip0_1324_1763)">
<g clip-path="url(#clip1_1324_1763)">
<path d="M46.7303 92.2006C72.0765 92.2006 92.6237 71.6534 92.6237 46.3072C92.6237 20.961 72.0765 0.413818 46.7303 0.413818C21.3841 0.413818 0.836914 20.961 0.836914 46.3072C0.836914 71.6534 21.3841 92.2006 46.7303 92.2006Z" fill="#F3BA2F"/>
</g>
</g>
<path d="M34.9858 51.3321L47.2501 63.5914L59.5194 51.3221L66.6515 58.4593L47.2501 77.8657L27.8486 58.4643L34.9858 51.3321Z" fill="white"/>
<path d="M22.8069 53.426L15.6724 46.2915L22.8069 39.157L29.9414 46.2915L22.8069 53.426Z" fill="white"/>
<path d="M34.9865 41.2528L47.2508 28.9885L59.5201 41.2578L66.6572 34.1306L66.6522 34.1257L47.2508 14.7192L27.8493 34.1157L27.8394 34.1257L34.9865 41.2528Z" fill="white"/>
<path d="M71.6838 53.4246L64.5493 46.29L71.6838 39.1555L78.8184 46.29L71.6838 53.4246Z" fill="white"/>
<path d="M54.4881 46.2947L47.2513 53.5366L41.8997 48.185L41.2812 47.5715L40.0144 46.3047L40.0044 46.2947L40.0144 46.2798L47.2513 39.0479L54.4881 46.2898L54.4931 46.2947H54.4881Z" fill="white"/>
<defs>
<clipPath id="clip0_1324_1763">
<rect width="91.814" height="91.814" fill="white" transform="translate(0.836914 0.38623)"/>
</clipPath>
<clipPath id="clip1_1324_1763">
<rect width="91.7868" height="91.7868" fill="white" transform="translate(0.836914 0.413818)"/>
</clipPath>
</defs>
</svg>
