<svg width="93" height="93" viewBox="0 0 93 93" fill="none" xmlns="http://www.w3.org/2000/svg">
<g clip-path="url(#clip0_1324_1758)">
<path d="M46.2559 92.3494C71.661 92.3494 92.2559 71.7545 92.2559 46.3494C92.2559 20.9443 71.661 0.349365 46.2559 0.349365C20.8508 0.349365 0.255859 20.9443 0.255859 46.3494C0.255859 71.7545 20.8508 92.3494 46.2559 92.3494Z" fill="#8247E5"/>
<g clip-path="url(#clip1_1324_1758)">
<path d="M61.466 36.1314C60.8957 35.8242 60.2593 35.6634 59.6129 35.6634C58.9666 35.6634 58.3302 35.8242 57.7599 36.1314L49.1124 41.2794L43.2444 44.5553L34.7513 49.7033C34.181 50.0105 33.5446 50.1713 32.8983 50.1713C32.2519 50.1713 31.6155 50.0105 31.0452 49.7033L24.4052 45.6473C23.8411 45.3111 23.3735 44.8321 23.0486 44.2576C22.7236 43.6831 22.5525 43.033 22.5521 42.3714V34.5714C22.557 33.9107 22.73 33.2623 23.0546 32.6886C23.3791 32.115 23.8442 31.6352 24.4052 31.2955L31.0452 27.3955C31.6155 27.0883 32.2519 26.9275 32.8983 26.9275C33.5446 26.9275 34.181 27.0883 34.7513 27.3955L41.3914 31.4515C41.9554 31.7877 42.423 32.2667 42.748 32.8412C43.0729 33.4157 43.244 34.0658 43.2444 34.7274V39.8754L49.1124 36.4434V31.1395C49.1075 30.4787 48.9344 29.8304 48.6099 29.2567C48.2854 28.683 47.8203 28.2032 47.2593 27.8635L34.9057 20.5316C34.3354 20.2243 33.699 20.0636 33.0527 20.0636C32.4063 20.0636 31.7699 20.2243 31.1996 20.5316L18.5372 28.0195C17.9699 28.3118 17.4954 28.7593 17.1677 29.311C16.8401 29.8627 16.6725 30.4962 16.6842 31.1395V45.8033C16.6891 46.4641 16.8621 47.1124 17.1866 47.6861C17.5111 48.2598 17.9762 48.7396 18.5372 49.0793L31.0452 56.4112C31.6155 56.7185 32.2519 56.8792 32.8983 56.8792C33.5446 56.8792 34.181 56.7185 34.7513 56.4112L43.2444 51.4193L49.1124 47.9873L57.6055 42.9953C58.1758 42.6881 58.8122 42.5274 59.4585 42.5274C60.1048 42.5274 60.7412 42.6881 61.3115 42.9953L67.9516 46.8953C68.5157 47.2316 68.9832 47.7105 69.3082 48.285C69.6331 48.8595 69.8043 49.5096 69.8046 50.1713V57.9712C69.7997 58.6319 69.6267 59.2803 69.3022 59.854C68.9777 60.4277 68.5126 60.9074 67.9516 61.2472L61.466 65.1471C60.8957 65.4544 60.2593 65.6151 59.6129 65.6151C58.9666 65.6151 58.3302 65.4544 57.7599 65.1471L51.1198 61.2472C50.5557 60.9109 50.0882 60.4319 49.7632 59.8574C49.4383 59.283 49.2672 58.6328 49.2668 57.9712V52.9792L43.3988 56.4112V61.5591C43.4037 62.2199 43.5767 62.8682 43.9013 63.4419C44.2258 64.0156 44.6909 64.4954 45.2519 64.8351L57.7599 72.167C58.3302 72.4743 58.9666 72.635 59.6129 72.635C60.2593 72.635 60.8957 72.4743 61.466 72.167L73.974 64.8351C74.5381 64.4989 75.0056 64.0199 75.3306 63.4454C75.6555 62.8709 75.8266 62.2208 75.827 61.5591V46.7393C75.8221 46.0786 75.6491 45.4302 75.3246 44.8565C75.0001 44.2828 74.535 43.8031 73.974 43.4633L61.466 36.1314Z" fill="white"/>
</g>
</g>
<defs>
<clipPath id="clip0_1324_1758">
<rect width="92" height="92" fill="white" transform="translate(0.255859 0.349365)"/>
</clipPath>
<clipPath id="clip1_1324_1758">
<rect width="59.1429" height="52.5714" fill="white" transform="translate(16.6846 20.0636)"/>
</clipPath>
</defs>
</svg>
