<?xml version="1.0" encoding="utf-8"?>
<!-- Generator: Adobe Illustrator 26.0.0, SVG Export Plug-In . SVG Version: 6.00 Build 0)  -->
<svg version="1.1" id="Layer_1" xmlns="http://www.w3.org/2000/svg" xmlns:xlink="http://www.w3.org/1999/xlink" x="0px" y="0px"
	 viewBox="0 0 91.34 90.19" style="enable-background:new 0 0 91.34 90.19;" xml:space="preserve">
<style type="text/css">
	.st0{clip-path:url(#SVGID_00000003084702148686934480000003929224879455284156_);}
	.st1{fill:url(#SVGID_00000030470236643240799770000014400136080047286461_);}
	.st2{fill:url(#SVGID_00000021828430911941547450000015536390058318338440_);}
	.st3{fill:url(#SVGID_00000073001438102260155250000006275556241193015996_);}
</style>
<path d="M45.09,90.19C70,90.19,90.19,70,90.19,45.09C90.19,20.19,70,0,45.09,0C20.19,0,0,20.19,0,45.09
	C0,70,20.19,90.19,45.09,90.19z"/>
<g>
	<defs>
		<rect id="SVGID_1_" x="18.59" y="21.07" width="53" height="48"/>
	</defs>
	<clipPath id="SVGID_00000171718480262938265120000002529682591953769859_">
		<use xlink:href="#SVGID_1_"  style="overflow:visible;"/>
	</clipPath>
	<g style="clip-path:url(#SVGID_00000171718480262938265120000002529682591953769859_);">
		
			<linearGradient id="SVGID_00000139989704008630123710000017032188000834064300_" gradientUnits="userSpaceOnUse" x1="305.9967" y1="-250.7581" x2="269.5247" y2="-311.2051" gradientTransform="matrix(1 0 0 -1 -234 -232.2507)">
			<stop  offset="0" style="stop-color:#00FFA3"/>
			<stop  offset="1" style="stop-color:#DC1FFF"/>
		</linearGradient>
		<path style="fill:url(#SVGID_00000139989704008630123710000017032188000834064300_);" d="M27.2,57.7
			c0.16-0.19,0.35-0.33,0.56-0.43c0.21-0.1,0.44-0.15,0.66-0.15h42.29c0.17,0,0.34,0.06,0.48,0.17c0.14,0.11,0.25,0.27,0.32,0.45
			c0.07,0.18,0.08,0.38,0.05,0.58c-0.03,0.19-0.12,0.37-0.24,0.51l-8.35,9.66c-0.16,0.19-0.35,0.33-0.56,0.43
			c-0.21,0.1-0.44,0.15-0.66,0.15H19.46c-0.17,0-0.34-0.06-0.48-0.17c-0.14-0.11-0.25-0.27-0.32-0.45
			c-0.07-0.18-0.08-0.38-0.05-0.58c0.03-0.19,0.12-0.37,0.24-0.51L27.2,57.7z"/>
		
			<linearGradient id="SVGID_00000098198697457532759270000016930960063322198665_" gradientUnits="userSpaceOnUse" x1="290.0508" y1="-241.1359" x2="253.5787" y2="-301.5846" gradientTransform="matrix(1 0 0 -1 -234 -232.2507)">
			<stop  offset="0" style="stop-color:#00FFA3"/>
			<stop  offset="1" style="stop-color:#DC1FFF"/>
		</linearGradient>
		<path style="fill:url(#SVGID_00000098198697457532759270000016930960063322198665_);" d="M27.2,21.65
			c0.33-0.37,0.77-0.58,1.23-0.59h42.29c0.17,0,0.34,0.06,0.48,0.17c0.14,0.11,0.25,0.27,0.32,0.45c0.07,0.18,0.08,0.38,0.05,0.58
			c-0.03,0.19-0.12,0.37-0.24,0.51l-8.35,9.66c-0.16,0.19-0.35,0.33-0.56,0.43c-0.21,0.1-0.44,0.15-0.66,0.15H19.46
			c-0.17,0-0.34-0.06-0.48-0.17c-0.14-0.11-0.25-0.27-0.32-0.45c-0.07-0.18-0.08-0.38-0.05-0.58c0.03-0.19,0.12-0.37,0.24-0.51
			L27.2,21.65z"/>
		
			<linearGradient id="SVGID_00000003803017120323525250000007367446602161091498_" gradientUnits="userSpaceOnUse" x1="297.972" y1="-245.9155" x2="261.5015" y2="-306.3644" gradientTransform="matrix(1 0 0 -1 -234 -232.2507)">
			<stop  offset="0" style="stop-color:#00FFA3"/>
			<stop  offset="1" style="stop-color:#DC1FFF"/>
		</linearGradient>
		<path style="fill:url(#SVGID_00000003803017120323525250000007367446602161091498_);" d="M62.98,39.56
			c-0.16-0.19-0.35-0.33-0.56-0.43c-0.21-0.1-0.44-0.15-0.66-0.15H19.46c-0.17,0-0.34,0.06-0.48,0.17
			c-0.14,0.11-0.25,0.27-0.32,0.45c-0.07,0.18-0.08,0.38-0.05,0.58c0.03,0.19,0.12,0.37,0.24,0.51l8.35,9.66
			c0.16,0.19,0.35,0.33,0.56,0.43c0.21,0.1,0.44,0.15,0.66,0.15h42.29c0.17,0,0.34-0.06,0.48-0.17c0.14-0.11,0.25-0.27,0.32-0.45
			c0.07-0.18,0.08-0.38,0.05-0.58c-0.03-0.19-0.12-0.37-0.24-0.51L62.98,39.56z"/>
	</g>
</g>
</svg>
