<svg width="103" height="91" viewBox="0 0 103 91" fill="none" xmlns="http://www.w3.org/2000/svg">
<g style="mix-blend-mode:darken">
<rect width="82" height="82" rx="17" fill="#53E6DD"/>
</g>
<g style="mix-blend-mode:darken">
<rect x="49" y="37" width="54" height="54" rx="17" fill="#BA62FE"/>
</g>
<path d="M28.0103 45.0288C15.9792 38.4669 12.811 32.425 14.376 31.2962C15.9415 30.2796 21.6769 33.6179 28.0103 45.0288C34.6833 32.7728 40.7257 29.7167 41.7434 31.5066C42.6484 33.1848 39.1974 38.8085 28.0103 45.0288C39.7044 51.48 42.9838 57.2971 41.7563 58.6486C40.4161 59.8886 34.5691 56.6629 28.0103 45.0288C22.0046 56.0479 16.4129 59.5505 14.7274 58.8854C12.705 58.1096 15.5926 51.9276 28.0103 45.0288Z" fill="white"/>
<path d="M67.3048 67.9208H69.1228V59.5106C69.1228 58.6303 69.3598 57.9328 69.8337 57.4182C70.3145 56.9035 70.9205 56.6462 71.6517 56.6462C72.3897 56.6462 73.0025 56.9035 73.49 57.4182C73.9775 57.926 74.2212 58.6235 74.2212 59.5106V66.4683C74.2212 67.4502 74.4074 68.3034 74.7798 69.0279C75.159 69.7457 75.677 70.301 76.3337 70.6937C76.9973 71.0865 77.7522 71.2829 78.5986 71.2829C79.4449 71.2829 80.1931 71.0865 80.8431 70.6937C81.4999 70.301 82.0145 69.7457 82.3869 69.0279C82.7593 68.3034 82.9455 67.4502 82.9455 66.4683V58.1393H81.1275V66.6105C81.1275 67.484 80.8871 68.1781 80.4064 68.6928C79.9324 69.2074 79.3298 69.4647 78.5986 69.4647C77.8606 69.4647 77.2478 69.2108 76.7603 68.7029C76.2728 68.1951 76.0291 67.4976 76.0291 66.6105V59.6528C76.0291 58.6709 75.8395 57.8211 75.4603 57.1033C75.0879 56.3787 74.5699 55.8201 73.9064 55.4273C73.2496 55.0346 72.4981 54.8382 71.6517 54.8382C70.8054 54.8382 70.0538 55.0346 69.397 55.4273C68.747 55.8201 68.2358 56.3787 67.8634 57.1033C67.491 57.8211 67.3048 58.6709 67.3048 59.6528V67.9208ZM65.883 67.1488C65.5173 67.1488 65.2905 67.2572 65.2025 67.4739C65.1145 67.6838 65.1686 67.9276 65.365 68.2052L67.64 71.4352C67.8093 71.6722 68.0022 71.7873 68.2189 71.7806C68.4356 71.7806 68.6251 71.6655 68.7876 71.4352L71.0626 68.195C71.259 67.9174 71.3098 67.6736 71.215 67.4637C71.127 67.2538 70.9035 67.1488 70.5447 67.1488H65.883ZM79.7158 58.9722H84.3673C84.7262 58.9722 84.9496 58.8673 85.0376 58.6574C85.1324 58.4407 85.0817 58.1935 84.8853 57.9159L82.6205 54.6757C82.458 54.4455 82.265 54.3304 82.0416 54.3304C81.8249 54.3236 81.6353 54.4387 81.4728 54.6757L79.1978 57.9057C78.9947 58.1901 78.9371 58.4407 79.0251 58.6574C79.1199 58.8673 79.3501 58.9722 79.7158 58.9722Z" fill="white"/>
<path d="M40 14.1742C40 11.3166 42.3166 9 45.1742 9C48.0318 9 50.3484 11.3166 50.3484 14.1742C50.3484 17.0318 48.0318 19.3484 45.1742 19.3484C42.3166 19.3484 40 17.0318 40 14.1742Z" stroke="white" stroke-width="1.5"/>
<path d="M43.6958 19.9027C43.6958 14.6978 47.9153 10.4783 53.1202 10.4783C58.3252 10.4783 62.5446 14.6978 62.5446 19.9027C62.5446 25.1077 58.3252 29.3271 53.1202 29.3271C47.9153 29.3271 43.6958 25.1077 43.6958 19.9027Z" stroke="white" stroke-width="1.5"/>
</svg>
