<svg width="100" height="92" viewBox="0 0 100 92" fill="none" xmlns="http://www.w3.org/2000/svg">
<g style="mix-blend-mode:darken">
<path d="M0 33.2988C0 30.593 1.55946 28.1295 4.00515 26.9718L34.7527 12.4176C36.6485 11.5203 38.8467 11.5203 40.7424 12.4176L71.49 26.9718C73.9357 28.1295 75.4951 30.593 75.4951 33.2988V69.7012C75.4951 72.407 73.9357 74.8705 71.49 76.0282L40.7424 90.5824C38.8467 91.4797 36.6485 91.4797 34.7527 90.5824L4.00514 76.0282C1.55946 74.8705 0 72.407 0 69.7012V33.2988Z" fill="#4E5FFF" fill-opacity="0.92"/>
</g>
<g style="mix-blend-mode:multiply">
<path d="M55 13.1203C55 11.5741 55.8911 10.1664 57.2887 9.50491L75.6576 0.810057C76.7409 0.297291 77.997 0.297291 79.0803 0.810058L97.4492 9.50491C98.8467 10.1664 99.7379 11.5741 99.7379 13.1203V34.8797C99.7379 36.4259 98.8467 37.8336 97.4492 38.4951L79.0803 47.1899C77.997 47.7027 76.7409 47.7027 75.6576 47.1899L57.2887 38.4951C55.8911 37.8336 55 36.4259 55 34.8797V13.1203Z" fill="#E64EFF" fill-opacity="0.87"/>
</g>
<path d="M83.3769 21.4721C83.6354 19.7806 82.3205 18.8711 80.5239 18.2643L81.1069 15.9724L79.6841 15.6254L79.116 17.8568C78.7422 17.7648 78.3585 17.6792 77.9756 17.5937L78.5478 15.3478L77.1251 15L76.5421 17.291C76.2325 17.2216 75.9279 17.1539 75.6331 17.0812L75.6348 17.074L73.6718 16.5938L73.2931 18.0835C73.2931 18.0835 74.3495 18.3208 74.3272 18.3353C74.9036 18.4765 75.0073 18.8502 74.9901 19.1471L74.3264 21.7577C74.3659 21.7674 74.417 21.782 74.4746 21.8037L74.3239 21.7674L73.3935 25.4247C73.3227 25.5958 73.1441 25.8532 72.7406 25.7556C72.7554 25.7758 71.7065 25.503 71.7065 25.503L71 27.0992L72.8526 27.5519C73.1968 27.6367 73.5343 27.7255 73.8662 27.8086L73.2774 30.1263L74.6994 30.4733L75.2824 28.1814C75.671 28.2839 76.0481 28.3791 76.417 28.4695L75.8357 30.7517L77.2584 31.0987L77.8472 28.7858C80.2744 29.2361 82.099 29.0546 82.8672 26.9031C83.4864 25.1713 82.8368 24.1715 81.5597 23.5202C82.4901 23.3104 83.19 22.7108 83.3769 21.4721ZM80.1246 25.9412C79.6857 27.6738 76.7093 26.7369 75.7443 26.5021L76.5265 23.4314C77.4915 23.6679 80.5849 24.1351 80.1246 25.9412ZM80.5651 21.4471C80.1641 23.0231 77.6874 22.2218 76.8846 22.0257L77.5927 19.2415C78.3955 19.4376 80.9834 19.8032 80.5651 21.4471Z" fill="white"/>
<path fill-rule="evenodd" clip-rule="evenodd" d="M48.3767 40.0919C48.3767 36.7527 45.1661 34.3518 41.9631 35.2958L26.4161 39.8779C25.5116 40.1757 24.9246 40.6049 24.5164 41.1328C24.1375 41.6229 23.8684 42.2555 23.6884 43.0769C24.9325 41.9421 26.5875 41.2501 28.4042 41.2501H46.6982C47.2767 41.2501 47.8389 41.3203 48.3767 41.4526V40.0919ZM21.4038 51.3639H21.4042V59.6067C21.4042 63.4727 24.5382 66.6067 28.4042 66.6067H46.6982C50.5641 66.6067 53.6982 63.4727 53.6982 59.6067V48.2501C53.6982 45.7335 52.3701 43.5271 50.3767 42.2934V40.0919C50.3767 35.417 45.8819 32.0558 41.3977 33.3774L25.8362 37.9638L25.8223 37.9679L25.8084 37.9724C24.5716 38.3764 23.6235 39.0179 22.9342 39.9095C22.2548 40.7882 21.8798 41.8413 21.6666 42.9854C21.3423 44.7253 21.3648 46.8945 21.3897 49.3078C21.3967 49.9758 21.4038 50.6625 21.4038 51.3639ZM28.4042 43.2501C25.6427 43.2501 23.4042 45.4887 23.4042 48.2501V59.6067C23.4042 62.3681 25.6427 64.6067 28.4042 64.6067H46.6982C49.4596 64.6067 51.6982 62.3681 51.6982 59.6067V48.2501C51.6982 45.4887 49.4596 43.2501 46.6982 43.2501H28.4042ZM45.024 56.0568C46.1997 56.0568 47.1527 55.1037 47.1527 53.9281C47.1527 52.7524 46.1997 51.7993 45.024 51.7993C43.8483 51.7993 42.8953 52.7524 42.8953 53.9281C42.8953 55.1037 43.8483 56.0568 45.024 56.0568Z" fill="white"/>
</svg>
