<svg width="92" height="92" viewBox="0 0 92 92" fill="none" xmlns="http://www.w3.org/2000/svg">
<g clip-path="url(#clip0_1324_1774)">
<path fill-rule="evenodd" clip-rule="evenodd" d="M91.4707 45.6255C91.4707 70.7547 71.0999 91.1255 45.9707 91.1255C20.8415 91.1255 0.470703 70.7547 0.470703 45.6255C0.470703 20.4963 20.8415 0.125488 45.9707 0.125488C71.0999 0.125488 91.4707 20.4963 91.4707 45.6255ZM33.0768 63.7322H24.247C22.3913 63.7322 21.4746 63.7322 20.9148 63.3747C20.6192 63.1824 20.373 62.923 20.1963 62.6178C20.0195 62.3125 19.9172 61.9699 19.8976 61.6177C19.8642 60.9586 20.3217 60.1534 21.2389 58.5442L43.0462 20.1152C43.9708 18.483 44.4397 17.6669 45.0328 17.3652C45.3481 17.2054 45.6966 17.1221 46.0501 17.1221C46.4035 17.1221 46.752 17.2054 47.0673 17.3652C47.6592 17.6681 48.1288 18.483 49.0563 20.1152L53.5397 27.9393L53.5621 27.9792C54.5642 29.7302 55.0725 30.6178 55.2943 31.5496C55.5403 32.5708 55.5403 33.6358 55.2943 34.657C55.0707 35.5961 54.5672 36.4903 53.5506 38.2673L42.0999 58.5121L42.0702 58.5642C41.0614 60.3291 40.5507 61.2239 39.8418 61.8964C39.0749 62.6303 38.1437 63.1704 37.1258 63.4717C36.1958 63.7322 35.1561 63.7322 33.0768 63.7322ZM55.3767 63.7322H68.0294C69.8961 63.7322 70.8352 63.7322 71.3944 63.3638C71.6917 63.1711 71.9389 62.9104 72.1158 62.6034C72.2927 62.2963 72.394 61.9517 72.4116 61.5977C72.4437 60.9598 71.9954 60.1861 71.1169 58.6702C71.0866 58.6187 71.0563 58.566 71.0254 58.5127L64.6875 47.6678L64.6154 47.5467C63.7248 46.0405 63.2752 45.2795 62.6979 44.9857C62.3846 44.8259 62.038 44.7426 61.6864 44.7426C61.3348 44.7426 60.9881 44.8259 60.6749 44.9857C60.0933 45.2886 59.6237 46.0811 58.6962 47.6794L52.3807 58.5242L52.3595 58.5618C51.4349 60.1576 50.9727 60.9549 51.006 61.6093C51.0255 61.963 51.1277 62.3071 51.3044 62.6142C51.481 62.9212 51.7273 63.1825 52.0232 63.3772C52.5709 63.7322 53.51 63.7322 55.3767 63.7322Z" fill="#E84142"/>
</g>
<defs>
<clipPath id="clip0_1324_1774">
<rect width="91" height="91" fill="white" transform="translate(0.470703 0.125488)"/>
</clipPath>
</defs>
</svg>
