<svg width="92" height="92" viewBox="0 0 92 92" fill="none" xmlns="http://www.w3.org/2000/svg">
<g clip-path="url(#clip0_1324_1724)">
<g clip-path="url(#clip1_1324_1724)">
<path d="M45.9572 91.3494C71.0787 91.3494 91.4437 70.9844 91.4437 45.8629C91.4437 20.7413 71.0787 0.376343 45.9572 0.376343C20.8357 0.376343 0.470703 20.7413 0.470703 45.8629C0.470703 70.9844 20.8357 91.3494 45.9572 91.3494Z" fill="#E2E7EC"/>
<path d="M60.1496 24.7185L50.322 39.3194C50.1798 39.5314 50.1199 39.7882 50.1536 40.0413C50.1874 40.2944 50.3124 40.5265 50.5052 40.6938C50.698 40.861 50.9452 40.952 51.2003 40.9494C51.4554 40.9469 51.7008 40.8511 51.8902 40.68L61.561 32.2544C61.6172 32.2035 61.6875 32.1708 61.7626 32.1605C61.8377 32.1502 61.9141 32.1629 61.9819 32.1968C62.0497 32.2308 62.1056 32.2844 62.1425 32.3507C62.1793 32.417 62.1953 32.4929 62.1883 32.5684V58.8918C62.1873 58.9703 62.1628 59.0466 62.118 59.111C62.0732 59.1754 62.0102 59.2249 61.9371 59.253C61.8639 59.2812 61.784 59.2868 61.7077 59.269C61.6313 59.2513 61.562 59.2111 61.5088 59.1535L32.2349 24.0905C31.7739 23.5251 31.1913 23.0714 30.5304 22.7633C29.8696 22.4552 29.1477 22.3006 28.4188 22.3112H27.3733C26.0506 22.3222 24.786 22.8568 23.8555 23.798C22.9251 24.7393 22.4044 26.0109 22.4072 27.3351V64.3868C22.4063 65.4831 22.7636 66.5496 23.4247 67.4237C24.0857 68.2977 25.0142 68.9313 26.0685 69.2278C27.1228 69.5242 28.245 69.4673 29.264 69.0657C30.2829 68.6641 31.1427 67.9399 31.7121 67.0034L41.5398 52.4026C41.682 52.1905 41.7419 51.9338 41.7081 51.6806C41.6744 51.4275 41.5493 51.1954 41.3566 51.0282C41.1638 50.8609 40.9165 50.77 40.6615 50.7725C40.4064 50.775 40.161 50.8709 39.9716 51.0419L30.3007 59.4152C30.2445 59.4661 30.1743 59.4988 30.0992 59.5091C30.0241 59.5194 29.9477 59.5067 29.8799 59.4728C29.8121 59.4388 29.7561 59.3852 29.7193 59.3189C29.6825 59.2526 29.6665 59.1767 29.6734 59.1012V32.8301C29.6745 32.7516 29.6989 32.6753 29.7437 32.6109C29.7885 32.5465 29.8516 32.4971 29.9247 32.4689C29.9979 32.4407 30.0778 32.4352 30.1541 32.4529C30.2304 32.4706 30.2997 32.5109 30.353 32.5684L59.6269 67.6314C60.0916 68.1925 60.675 68.6432 61.3349 68.9509C61.9949 69.2586 62.7149 69.4157 63.4429 69.4108H64.4884C65.8194 69.4108 67.0958 68.8814 68.037 67.9393C68.9781 66.9971 69.5068 65.7192 69.5068 64.3868V27.3351C69.4981 26.2372 69.133 25.1718 68.4665 24.2999C67.8 23.4279 66.8683 22.7966 65.8119 22.5012C64.7556 22.2058 63.632 22.2623 62.6106 22.6623C61.5892 23.0623 60.7254 23.784 60.1496 24.7185Z" fill="black"/>
</g>
</g>
<defs>
<clipPath id="clip0_1324_1724">
<rect width="91" height="91" fill="white" transform="translate(0.470703 0.349365)"/>
</clipPath>
<clipPath id="clip1_1324_1724">
<rect width="90.973" height="90.973" fill="white" transform="translate(0.470703 0.376343)"/>
</clipPath>
</defs>
</svg>
