<svg width="92" height="92" viewBox="0 0 92 92" fill="none" xmlns="http://www.w3.org/2000/svg">
<g clip-path="url(#clip0_1324_1751)">
<path d="M46 91.1255C71.129 91.1255 91.5 70.7544 91.5 45.6255C91.5 20.4965 71.129 0.125488 46 0.125488C20.871 0.125488 0.5 20.4965 0.5 45.6255C0.5 70.7544 20.871 91.1255 46 91.1255Z" fill="#FF0420"/>
<path d="M32.7377 57.7194C30.0295 57.7194 27.8097 57.0818 26.0783 55.8066C24.3712 54.5095 23.5176 52.6653 23.5176 50.2738C23.5277 49.6558 23.5849 49.0394 23.6887 48.4301C23.9847 46.7897 24.4057 44.8205 24.9517 42.5224C26.5012 36.2616 30.4967 33.1312 36.9383 33.1312C38.5535 33.104 40.1574 33.4062 41.6521 34.0194C42.978 34.5391 44.1187 35.4428 44.9281 36.6147C45.7252 37.7528 46.1238 39.1184 46.1238 40.7115C46.1124 41.3186 46.0553 41.9239 45.9527 42.5224C45.6106 44.5487 45.2005 46.5179 44.7224 48.4301C43.9265 51.5496 42.5493 53.8828 40.591 55.4298C38.6339 56.9574 36.0161 57.7206 32.7377 57.7194ZM33.2164 52.8054C34.3994 52.8375 35.5535 52.4362 36.4614 51.677C37.3714 50.9272 38.0199 49.7745 38.407 48.219C38.9312 46.0787 39.3297 44.212 39.6027 42.6189C39.6943 42.1347 39.74 41.6429 39.7392 41.1501C39.7392 39.079 38.6576 38.0434 36.4942 38.0434C35.3026 38.015 34.1403 38.4147 33.2182 39.17C32.33 39.921 31.6924 41.0707 31.3054 42.6189C30.8965 44.144 30.487 46.0107 30.0769 48.219C29.9842 48.6914 29.9385 49.1718 29.9404 49.6532C29.9391 51.7522 31.0311 52.8018 33.2164 52.8018V52.8054Z" fill="white"/>
<path d="M47.6924 57.3772C47.584 57.3833 47.4756 57.365 47.3751 57.3238C47.2746 57.2825 47.1847 57.2193 47.1118 57.1388C46.9984 56.9551 46.9618 56.7341 47.0099 56.5236L51.7219 34.3196C51.7643 34.0745 51.8992 33.855 52.0986 33.7063C52.2807 33.5543 52.5094 33.4695 52.7465 33.4661H61.8338C64.3612 33.4661 66.3874 33.9896 67.9126 35.0367C69.4608 36.085 70.2349 37.6017 70.2349 39.5867C70.232 40.1845 70.1637 40.7802 70.0311 41.363C69.462 43.9802 68.3124 45.9155 66.5822 47.1688C64.8726 48.4198 62.526 49.0453 59.5424 49.0453H54.9324L53.3617 56.5236C53.3193 56.7688 53.1853 56.9887 52.9868 57.1388C52.8034 57.2894 52.5743 57.3735 52.337 57.3772H47.6924ZM59.7827 44.3315C60.6768 44.3509 61.5525 44.0752 62.2743 43.547C63.0176 43.0013 63.5293 42.1967 63.7084 41.2921C63.7728 40.9542 63.8075 40.6113 63.8121 40.2674C63.8121 39.6067 63.6174 39.1062 63.2316 38.7659C62.8457 38.4256 62.1832 38.2199 61.2514 38.2199H57.1528L55.8551 44.3333L59.7827 44.3315Z" fill="white"/>
</g>
<defs>
<clipPath id="clip0_1324_1751">
<rect width="91" height="91" fill="white" transform="translate(0.5 0.125488)"/>
</clipPath>
</defs>
</svg>
