<svg width="92" height="92" viewBox="0 0 92 92" fill="none" xmlns="http://www.w3.org/2000/svg">
<g clip-path="url(#clip0_1324_1739)">
<path d="M45.8719 91.169C70.9333 91.169 91.2496 70.8527 91.2496 45.7913C91.2496 20.7299 70.9333 0.413574 45.8719 0.413574C20.8104 0.413574 0.494141 20.7299 0.494141 45.7913C0.494141 70.8527 20.8104 91.169 45.8719 91.169Z" fill="#E2E7EC"/>
<path d="M79.1549 59.1753C79.1566 60.9218 78.6981 62.638 77.8256 64.1509C76.9531 65.6639 75.6973 66.9202 74.1848 67.7935L50.8251 81.2129C49.3182 82.0789 47.6105 82.5346 45.8724 82.5346C44.1343 82.5346 42.4266 82.0789 40.9196 81.2129L17.56 67.7935C16.0475 66.9202 14.7917 65.6639 13.9192 64.1509C13.0466 62.638 12.5881 60.9218 12.5898 59.1753V32.4061C12.5881 30.6596 13.0466 28.9434 13.9192 27.4305C14.7917 25.9175 16.0475 24.6612 17.56 23.7879L40.9196 10.3685C42.426 9.50344 44.1328 9.04822 45.8699 9.04822C47.607 9.04822 49.3138 9.50344 50.8202 10.3685L74.1798 23.7879C75.6924 24.6612 76.9481 25.9175 77.8206 27.4305C78.6932 28.9434 79.1517 30.6596 79.15 32.4061L79.1549 59.1753Z" fill="#1D86CC"/>
<path d="M42.9749 14.1008L19.9134 27.4257C19.04 27.9294 18.3141 28.6535 17.8082 29.5257C17.3023 30.3979 17.0343 31.3876 17.0308 32.3959V59.0656C17.0342 60.0733 17.3018 61.0625 17.8067 61.9345C18.3116 62.8066 19.0363 63.5311 19.9085 64.0358L42.9997 77.3806C43.8755 77.8886 44.87 78.1561 45.8824 78.1561C46.8949 78.1561 47.8893 77.8886 48.7651 77.3806L71.8266 64.0656C72.6997 63.5615 73.4253 62.8373 73.9311 61.9652C74.437 61.0931 74.7052 60.1036 74.7092 59.0955V32.4257C74.7052 31.4175 74.437 30.428 73.9311 29.5559C73.4253 28.6838 72.6997 27.9596 71.8266 27.4555L48.7403 14.1058C47.8636 13.6002 46.8695 13.3341 45.8576 13.3341C44.8456 13.3341 43.8515 13.6002 42.9749 14.1058V14.1008Z" fill="white"/>
<path d="M35.3607 68.41C35.3935 68.2276 35.4722 68.0566 35.5893 67.913C42.4879 56.2066 49.3881 44.5019 56.2899 32.7989C56.3844 32.6349 56.4738 32.4709 56.5534 32.3268C56.4937 32.2174 56.4241 32.2423 56.3645 32.2423C53.4172 32.2423 50.4699 32.2721 47.5176 32.2423C47.3913 32.2391 47.267 32.2751 47.162 32.3454C47.057 32.4157 46.9763 32.5169 46.9312 32.6349C44.7145 36.3426 42.4879 40.0338 40.2513 43.7084C35.5297 51.5016 30.8064 59.2947 26.0814 67.0879C26.0417 67.1575 25.9969 67.2221 25.9572 67.2967C25.8777 67.4557 25.7783 67.4806 25.6093 67.3861C24.8787 66.9488 24.1182 66.5313 23.3578 66.084L44.3815 32.3715C44.3368 32.2323 44.2423 32.2671 44.1727 32.2671C43.0445 32.2323 41.9163 32.1826 40.793 32.1727C39.2125 32.1268 37.6376 32.3797 36.1509 32.9182C34.7978 33.4178 33.648 34.3509 32.8806 35.5723C29.037 41.5662 25.1785 47.5486 21.3051 53.5194L21.1212 53.8027C20.8976 53.8027 20.9324 53.6188 20.9125 53.4896C20.8977 53.2977 20.8977 53.105 20.9125 52.9131C20.9125 46.3028 20.9125 39.6975 20.9125 33.0922C20.8765 32.5226 21.0127 31.9554 21.3034 31.4643C21.5942 30.9732 22.026 30.581 22.5427 30.3387C27.6222 27.4461 32.6669 24.4889 37.7314 21.5614C39.9929 20.2593 42.2592 18.967 44.5008 17.6301C44.9241 17.3484 45.4212 17.1981 45.9297 17.1981C46.4382 17.1981 46.9353 17.3484 47.3586 17.6301C51.4838 20.0505 55.6438 22.4163 59.784 24.802L69.1725 30.1995C69.3962 30.3238 69.6149 30.463 69.8385 30.5872C70.2053 30.7812 70.5088 31.0763 70.7132 31.4374C70.9175 31.7985 71.0141 32.2106 70.9916 32.625C70.9916 39.8118 70.9916 46.9986 70.9916 54.1854C71.0011 54.3533 70.9809 54.5216 70.932 54.6825C70.6835 54.921 70.594 54.6526 70.5045 54.5234C70.1318 54.0015 69.7988 53.4499 69.4509 52.9081C66.6775 48.5642 63.8943 44.2269 61.101 39.8963C60.1617 38.4351 59.2124 36.9738 58.283 35.5077C58.0643 35.1647 58.0295 35.1597 57.786 35.5077C56.3844 37.8801 54.9845 40.2508 53.5862 42.6199C53.509 42.7516 53.4756 42.9043 53.4908 43.0561C53.506 43.208 53.569 43.3511 53.6707 43.4648C54.8237 45.3237 55.9835 47.1858 57.1498 49.0513L63.0444 58.584C63.8396 59.8729 64.6365 61.1602 65.435 62.4458C65.5817 62.62 65.6642 62.8393 65.6686 63.0671C65.5096 63.3802 65.1716 63.4697 64.8982 63.6138C64.4417 63.9436 63.9394 64.2048 63.4072 64.3891C63.1239 64.3196 63.0195 64.0611 62.8853 63.8474C61.0613 61.0045 59.2621 58.1417 57.448 55.2888C55.5842 52.3564 53.7303 49.4141 51.8566 46.4867C51.618 46.109 51.5782 46.109 51.3596 46.4867C49.7343 49.2252 48.129 51.9787 46.4938 54.7172C46.4108 54.8453 46.3701 54.9962 46.3772 55.1486C46.3843 55.301 46.439 55.4474 46.5336 55.5671C48.7353 58.9568 50.8824 62.3762 53.0593 65.7808C53.6657 66.7301 54.277 67.6794 54.8735 68.6336C54.9878 68.8225 55.1468 69.0064 55.0424 69.2549C54.4724 69.7011 53.8559 70.0843 53.2035 70.398L47.0852 73.9865C46.7606 74.2002 46.3805 74.3142 45.9918 74.3142C45.6031 74.3142 45.223 74.2002 44.8984 73.9865C41.9163 72.2536 38.9127 70.5289 35.8875 68.8126C35.6787 68.7286 35.4966 68.5894 35.3607 68.41Z" fill="#2D374B"/>
<path d="M70.815 54.7813C70.815 54.6024 70.815 54.4234 70.815 54.2495C70.815 47.0792 70.815 39.909 70.815 32.7387C70.8412 32.3041 70.7399 31.8713 70.5236 31.4935C70.3072 31.1156 69.9853 30.8091 69.5974 30.6115C62.0692 26.304 54.5445 21.9784 47.023 17.6345C46.6838 17.4154 46.2886 17.2988 45.8848 17.2988C45.481 17.2988 45.0858 17.4154 44.7467 17.6345C40.585 20.0566 36.4117 22.4837 32.2269 24.9157L22.1524 30.7258C21.7922 30.9126 21.4939 31.1998 21.2937 31.5526C21.0934 31.9055 20.9998 32.3089 21.0242 32.7139C21.0441 39.5925 21.054 46.4712 21.054 53.3499C21.054 53.504 20.9944 53.673 21.1286 53.8071C20.3333 55.1342 19.4586 56.4065 18.6186 57.7037C18.2011 58.3664 17.7803 59.0125 17.3562 59.6421C17.2866 59.7465 17.2121 59.8409 17.0779 60.0298C17.0779 59.8111 17.0779 59.6918 17.0779 59.5725C17.0779 50.5037 17.0779 41.4315 17.0779 32.356C17.0493 31.3477 17.3001 30.3512 17.8028 29.4766C18.3054 28.6021 19.0402 27.8836 19.9258 27.4008C22.8482 25.6662 25.8055 23.9962 28.7428 22.2965C31.2279 20.8601 33.7129 19.4138 36.198 17.9724C38.5091 16.6305 40.7954 15.2488 43.1562 13.9963C44.0564 13.4951 45.0747 13.245 46.1047 13.2721C47.1347 13.2992 48.1384 13.6026 49.011 14.1504C50.8997 15.219 52.7784 16.3124 54.6621 17.3959L59.9404 20.4426L64.8409 23.2607L69.6968 26.0489C70.4125 26.4565 71.1232 26.869 71.8289 27.2865C72.6101 27.7276 73.2817 28.3392 73.7937 29.0758C74.3057 29.8124 74.645 30.655 74.7862 31.5409C74.8211 31.7961 74.831 32.0541 74.816 32.3113C74.816 41.2377 74.816 50.1657 74.816 59.0954C74.824 59.9475 74.6427 60.7909 74.2852 61.5644C73.9276 62.338 73.4027 63.0225 72.7484 63.5685C72.3756 63.8503 71.9761 64.095 71.5556 64.2991C69.1335 65.7106 66.7114 67.1155 64.2892 68.5138L56.5507 72.9869C54.0723 74.4249 51.5872 75.8663 49.0955 77.3109C48.4803 77.7264 47.787 78.0122 47.0578 78.1509C45.8468 78.3874 44.5919 78.227 43.4793 77.6936C42.2467 77.0326 41.0439 76.3169 39.8312 75.6211L34.9306 72.803L33.5489 72.0128C33.3799 71.9134 33.2656 71.8189 33.3949 71.5953C34.0062 70.5764 34.6076 69.5476 35.2139 68.5237C35.2139 68.484 35.2885 68.4691 35.3282 68.4392C35.8947 68.7034 36.4427 69.0056 36.9684 69.3438C39.6357 70.8647 42.2964 72.3955 44.9504 73.9362C45.2556 74.1331 45.6111 74.2378 45.9743 74.2378C46.3375 74.2378 46.6929 74.1331 46.9981 73.9362C49.523 72.4452 52.0577 70.9939 54.5875 69.5277L54.9702 69.319C55.209 69.0148 55.5272 68.7826 55.8897 68.648C58.176 67.3408 60.4473 66.0039 62.7336 64.6719C62.9225 64.5625 63.0964 64.3935 63.3449 64.4234L65.5815 63.1262C65.7206 62.8379 66.0139 62.7484 66.2574 62.6291C67.3807 61.9781 68.499 61.3121 69.6371 60.6808C69.9657 60.5077 70.2374 60.2437 70.4199 59.9202C70.6023 59.5967 70.6878 59.2275 70.6659 58.8568C70.6659 57.7137 70.6659 56.5755 70.6659 55.4324C70.644 55.3195 70.646 55.2032 70.6717 55.0911C70.6973 54.9789 70.7462 54.8734 70.815 54.7813Z" fill="#96BEDC"/>
<path d="M70.8142 54.7767C70.8142 56.1932 70.849 57.6146 70.8142 59.0262C70.8219 59.3572 70.7383 59.6839 70.5726 59.9706C70.4069 60.2572 70.1655 60.4928 69.8749 60.6514C68.4485 61.4566 67.0469 62.3114 65.6105 63.0967C65.0389 62.053 64.3779 61.059 63.7517 60.045C60.5045 54.78 57.254 49.5199 54.0003 44.2648C53.8064 43.9517 53.6275 43.6237 53.4088 43.3255C53.3407 43.2382 53.3037 43.1306 53.3037 43.0198C53.3037 42.9091 53.3407 42.8015 53.4088 42.7142C54.1891 41.417 54.9496 40.1098 55.7199 38.8076L57.8521 35.1844C57.8918 35.0994 57.9581 35.0296 58.041 34.9856C58.4154 35.5588 58.7882 36.1354 59.1593 36.7152C61.4058 40.2076 63.6506 43.7032 65.8938 47.2022L70.4614 54.3145C70.5449 54.4918 70.6652 54.6494 70.8142 54.7767Z" fill="#28A0F0"/>
<path d="M63.3804 64.3931C62.456 64.9995 61.4719 65.5164 60.5176 66.083C58.783 67.077 57.0385 68.1008 55.3039 69.1098L55.0107 69.2688C54.9852 69.1092 54.9164 68.9597 54.8119 68.8364C53.2612 66.4044 51.7138 63.9723 50.1698 61.5403L46.3428 55.5761C46.2555 55.4731 46.2047 55.3441 46.1984 55.2093C46.1921 55.0744 46.2307 54.9412 46.308 54.8306C48.0177 51.9512 49.7208 49.0669 51.4173 46.1776C51.4571 46.1129 51.4869 46.0334 51.5863 46.0135C51.6857 45.9937 51.7602 46.1825 51.8248 46.2869L61.0693 60.8494L63.0574 63.9508C63.1424 64.1245 63.2587 64.2812 63.4003 64.413L63.3804 64.3931Z" fill="#28A0F0"/>
</g>
<defs>
<clipPath id="clip0_1324_1739">
<rect width="90.7555" height="90.7555" fill="white" transform="translate(0.494141 0.413574)"/>
</clipPath>
</defs>
</svg>
