<svg width="107" height="93" viewBox="0 0 107 93" fill="none" xmlns="http://www.w3.org/2000/svg">
<circle cx="65.5" cy="51.5" r="41.5" fill="#D739FF"/>
<g style="mix-blend-mode:darken" opacity="0.56">
<circle cx="32" cy="32" r="32" fill="#27DFDC"/>
</g>
<path d="M45.1203 32.8968H43.4238V30.0498H45.1203V32.8968ZM45.1203 46.6346H43.4238V43.4463H45.1203V46.6346ZM44.1453 44.7821C43.5538 44.7821 43.0078 44.7366 42.5073 44.6456C42.0068 44.5546 41.5583 44.4408 41.1618 44.3043C40.7718 44.1678 40.4403 44.0313 40.1673 43.8948L39.982 41.9741C40.4825 42.2601 41.074 42.5136 41.7565 42.7346C42.4455 42.9556 43.1898 43.0661 43.9893 43.0661C44.8993 43.0661 45.5688 42.9166 45.9978 42.6176C46.4268 42.3121 46.6413 41.8538 46.6413 41.2428V41.0966C46.6413 40.7001 46.5535 40.3751 46.378 40.1216C46.209 39.8616 45.9198 39.6406 45.5103 39.4586C45.1008 39.2701 44.545 39.0913 43.843 38.9223C42.92 38.6948 42.1725 38.4283 41.6005 38.1228C41.035 37.8108 40.6223 37.4241 40.3623 36.9626C40.1023 36.4946 39.9723 35.9128 39.9723 35.2173V35.1198C39.9723 34.0733 40.32 33.2673 41.0155 32.7018C41.711 32.1363 42.7543 31.8536 44.1453 31.8536C45.0358 31.8536 45.7963 31.9413 46.4268 32.1168C47.0638 32.2858 47.587 32.4776 47.9965 32.6921L48.172 34.4763C47.6975 34.2033 47.1515 33.9758 46.534 33.7938C45.9165 33.6053 45.221 33.5111 44.4475 33.5111C43.843 33.5111 43.3588 33.5793 42.9948 33.7158C42.6308 33.8458 42.3675 34.0376 42.205 34.2911C42.0425 34.5381 41.9613 34.8371 41.9613 35.1881V35.2271C41.9613 35.5911 42.0425 35.9031 42.205 36.1631C42.3675 36.4231 42.6535 36.6538 43.063 36.8553C43.479 37.0503 44.0673 37.2453 44.8278 37.4403C45.7313 37.6678 46.4593 37.9246 47.0118 38.2106C47.5708 38.4901 47.9803 38.8573 48.2403 39.3123C48.5003 39.7608 48.6303 40.3523 48.6303 41.0868V41.2818C48.6303 42.4323 48.2565 43.3033 47.509 43.8948C46.7615 44.4863 45.6403 44.7821 44.1453 44.7821Z" fill="white"/>
<path d="M56.2444 57.6062C56.2444 57.8748 56.316 58.0851 56.4592 58.2373C56.6114 58.3895 56.8218 58.4656 57.0903 58.4656H59.9102V61.2988C59.9102 61.5584 59.9818 61.7688 60.125 61.9299C60.2682 62.0821 60.4652 62.1582 60.7158 62.1582C60.9665 62.1582 61.1634 62.0821 61.3066 61.9299C61.4588 61.7688 61.5349 61.5584 61.5349 61.2988V58.4656H64.2473C64.5248 58.4656 64.7441 58.3895 64.9053 58.2373C65.0664 58.0851 65.147 57.8748 65.147 57.6062C65.147 57.3645 65.0664 57.1676 64.9053 57.0154C64.7441 56.8632 64.5248 56.7871 64.2473 56.7871H61.5349V53.9539C61.5349 53.6943 61.4588 53.4884 61.3066 53.3362C61.1634 53.184 60.9665 53.1079 60.7158 53.1079C60.4652 53.1079 60.2682 53.184 60.125 53.3362C59.9818 53.4884 59.9102 53.6943 59.9102 53.9539V56.7871H57.0903C56.8218 56.7871 56.6114 56.8632 56.4592 57.0154C56.316 57.1676 56.2444 57.3645 56.2444 57.6062ZM75.3118 57.3242C75.8131 57.3242 76.2383 57.1541 76.5874 56.814C76.9455 56.4648 77.1245 56.0352 77.1245 55.5249C77.1245 55.0057 76.9455 54.5715 76.5874 54.2224C76.2383 53.8733 75.8131 53.6987 75.3118 53.6987C74.8015 53.6987 74.3674 53.8733 74.0093 54.2224C73.6602 54.5715 73.4856 55.0057 73.4856 55.5249C73.4856 56.0352 73.6602 56.4648 74.0093 56.814C74.3674 57.1541 74.8015 57.3242 75.3118 57.3242ZM71.2163 61.3525C71.7266 61.3525 72.1562 61.1825 72.5054 60.8423C72.8545 60.4932 73.0291 60.059 73.0291 59.5398C73.0291 59.0295 72.8545 58.5999 72.5054 58.2507C72.1562 57.9016 71.7266 57.7271 71.2163 57.7271C70.715 57.7271 70.2853 57.9016 69.9272 58.2507C69.5781 58.5999 69.4036 59.0295 69.4036 59.5398C69.4036 60.059 69.5781 60.4932 69.9272 60.8423C70.2853 61.1825 70.715 61.3525 71.2163 61.3525ZM47.8521 67.301C47.8521 68.2947 48.0535 69.163 48.4563 69.906C48.8681 70.649 49.4365 71.2219 50.1616 71.6248C50.8957 72.0365 51.7506 72.2424 52.7263 72.2424C53.4604 72.2424 54.181 72.0768 54.8882 71.7456C55.5954 71.4233 56.222 70.9265 56.7681 70.2551L59.2522 67.2473C59.4402 67.0146 59.6326 66.849 59.8296 66.7505C60.0355 66.652 60.2414 66.6028 60.4473 66.6028H73.5393C73.7542 66.6028 73.96 66.652 74.157 66.7505C74.3539 66.849 74.5509 67.0146 74.7478 67.2473L77.2319 70.2551C77.778 70.9265 78.4046 71.4233 79.1118 71.7456C79.819 72.0768 80.5396 72.2424 81.2737 72.2424C82.2494 72.2424 83.0999 72.0365 83.825 71.6248C84.559 71.2219 85.1274 70.649 85.5303 69.906C85.9421 69.163 86.1479 68.2947 86.1479 67.301C86.1479 66.6565 86.0719 65.9583 85.9197 65.2063C85.7675 64.4454 85.5616 63.6263 85.302 62.749C85.0334 61.827 84.7022 60.8244 84.3083 59.7412C83.9145 58.658 83.4893 57.5659 83.0327 56.4648C82.5762 55.3548 82.1196 54.3075 81.6631 53.3228C81.2871 52.5439 80.938 51.8994 80.6157 51.3892C80.2935 50.8789 79.8817 50.4671 79.3804 50.1538C78.8791 49.8315 78.1764 49.5675 77.2722 49.3616C75.9742 49.0662 74.4569 48.8334 72.7202 48.6633C70.9925 48.4932 69.0858 48.4082 67 48.4082C64.9232 48.4082 63.0164 48.4932 61.2798 48.6633C59.5431 48.8334 58.0258 49.0662 56.7278 49.3616C55.8236 49.5675 55.1209 49.8315 54.6196 50.1538C54.1183 50.4671 53.7065 50.8789 53.3843 51.3892C53.062 51.8994 52.7129 52.5439 52.3369 53.3228C51.8714 54.3075 51.4104 55.3548 50.9539 56.4648C50.5063 57.5659 50.0855 58.658 49.6917 59.7412C49.2978 60.8244 48.9666 61.827 48.698 62.749C48.4294 63.6263 48.2191 64.4454 48.0669 65.2063C47.9237 65.9583 47.8521 66.6565 47.8521 67.301ZM49.4365 67.3816C49.4365 66.9519 49.4858 66.4551 49.5842 65.8911C49.6827 65.3271 49.8617 64.611 50.1213 63.7427C50.4078 62.7848 50.7524 61.7375 51.1553 60.6006C51.5671 59.4637 52.0057 58.3179 52.4712 57.1631C52.9456 55.9993 53.4111 54.9072 53.8677 53.8867C54.0915 53.4033 54.3108 52.9736 54.5256 52.5977C54.7405 52.2217 55.0225 51.8994 55.3716 51.6309C55.7297 51.3623 56.2265 51.1564 56.8621 51.0132C58.1064 50.7267 59.5879 50.4985 61.3066 50.3284C63.0343 50.1493 64.9321 50.0598 67 50.0598C69.0679 50.0598 70.9612 50.1493 72.6799 50.3284C74.4076 50.4985 75.8936 50.7267 77.1379 51.0132C77.7735 51.1654 78.2659 51.3757 78.615 51.6443C78.9641 51.9039 79.2461 52.2217 79.4609 52.5977C79.6758 52.9736 79.8951 53.4033 80.1189 53.8867C80.5933 54.9072 81.0633 55.9993 81.5288 57.1631C81.9943 58.3179 82.4285 59.4637 82.8313 60.6006C83.2341 61.7375 83.5833 62.7848 83.8787 63.7427C84.1293 64.611 84.3039 65.3271 84.4023 65.8911C84.5098 66.4551 84.5635 66.9519 84.5635 67.3816C84.5635 68.3752 84.2546 69.1675 83.637 69.7583C83.0282 70.3491 82.245 70.6445 81.2871 70.6445C80.186 70.6445 79.2013 70.1208 78.333 69.0735L75.7952 66.0254C75.4908 65.6584 75.1775 65.3898 74.8552 65.2197C74.533 65.0407 74.1122 64.9512 73.593 64.9512H60.407C59.8788 64.9512 59.4536 65.0407 59.1313 65.2197C58.818 65.3898 58.5092 65.6584 58.2048 66.0254L55.667 69.0735C55.2463 69.5837 54.7808 69.9731 54.2705 70.2417C53.7692 70.5103 53.2455 70.6445 52.6995 70.6445C51.7506 70.6445 50.9673 70.3491 50.3496 69.7583C49.7409 69.1675 49.4365 68.3752 49.4365 67.3816Z" fill="white"/>
</svg>
