<svg width="559" height="498" viewBox="0 0 559 498" fill="none" xmlns="http://www.w3.org/2000/svg">
<rect x="126" y="71" width="321" height="427" rx="20" fill="url(#paint0_linear_17_32)" fill-opacity="0.51"/>
<rect x="75" y="21" width="265" height="252" rx="20" fill="url(#paint1_linear_17_32)" fill-opacity="0.3"/>
<path fill-rule="evenodd" clip-rule="evenodd" d="M259.899 136.07C259.899 125.385 249.626 117.702 239.376 120.723L194.528 133.941C191.728 134.86 189.845 136.213 188.522 137.924C187.174 139.667 186.299 141.922 185.762 144.804C185.611 145.614 185.489 146.459 185.39 147.34C189.053 142.714 194.719 139.746 201.078 139.746H253.605C255.804 139.746 257.92 140.101 259.899 140.757V136.07ZM181.077 168.387H181.078V192C181.078 203.046 190.032 212 201.078 212H253.605C264.651 212 273.605 203.046 273.605 192V159.746C273.605 152.465 269.715 146.093 263.899 142.595V136.07C263.899 122.714 251.057 113.11 238.245 116.886L193.369 130.112L193.341 130.121L193.313 130.13C189.849 131.261 187.243 133.039 185.357 135.478C183.491 137.891 182.437 140.814 181.83 144.071C180.9 149.058 180.964 155.271 181.036 162.306C181.057 164.271 181.077 166.301 181.077 168.387ZM201.078 143.746C192.241 143.746 185.078 150.909 185.078 159.746V192C185.078 200.837 192.241 208 201.078 208H253.605C262.442 208 269.605 200.837 269.605 192V159.746C269.605 150.909 262.442 143.746 253.605 143.746H201.078ZM249.179 182.094C252.615 182.094 255.4 179.309 255.4 175.873C255.4 172.437 252.615 169.652 249.179 169.652C245.744 169.652 242.959 172.437 242.959 175.873C242.959 179.309 245.744 182.094 249.179 182.094Z" fill="white"/>
<g style="mix-blend-mode:multiply">
<rect x="301" y="342" width="258" height="58" rx="29" fill="#9F3FFF" fill-opacity="0.41"/>
</g>
<circle cx="398" cy="371" r="4" fill="white"/>
<rect x="450.727" y="367.582" width="35.4909" height="5.67273" rx="2.83636" fill="#A3FFF9"/>
<rect x="411.891" y="368.745" width="33.4545" height="4.50909" rx="2.25455" fill="white"/>
<rect x="492.764" y="368.745" width="33.4545" height="4.50909" rx="2.25455" fill="white"/>
<g style="mix-blend-mode:multiply">
<rect x="300" y="408" width="258" height="58" rx="29" fill="#9F3FFF" fill-opacity="0.41"/>
</g>
<ellipse rx="4.28931" ry="4" transform="matrix(-1 0 0 1 518.711 437)" fill="white"/>
<rect width="38.0579" height="5.67273" rx="2.83636" transform="matrix(-1 0 0 1 462.17 433.582)" fill="#A3FFF9"/>
<rect width="35.8742" height="4.50909" rx="2.25455" transform="matrix(-1 0 0 1 503.815 434.745)" fill="white"/>
<rect width="35.8742" height="4.50909" rx="2.25455" transform="matrix(-1 0 0 1 417.093 434.745)" fill="white"/>
<rect width="35.8742" height="4.50909" rx="2.25455" transform="matrix(-1 0 0 1 372.874 434.745)" fill="white"/>
<rect x="386" y="194" width="33" height="33" rx="4" fill="white" fill-opacity="0.19" stroke="white" stroke-width="2"/>
<path d="M407.246 207.311C407.068 207.215 406.869 207.165 406.668 207.165C406.466 207.165 406.267 207.215 406.089 207.311L403.391 208.918L401.561 209.94L398.911 211.546C398.733 211.642 398.534 211.693 398.333 211.693C398.131 211.693 397.932 211.642 397.755 211.546L395.683 210.281C395.507 210.176 395.361 210.026 395.26 209.847C395.158 209.668 395.105 209.465 395.105 209.258V206.824C395.106 206.618 395.16 206.416 395.261 206.236C395.363 206.057 395.508 205.908 395.683 205.802L397.755 204.585C397.932 204.489 398.131 204.439 398.333 204.439C398.534 204.439 398.733 204.489 398.911 204.585L400.982 205.85C401.158 205.955 401.304 206.105 401.406 206.284C401.507 206.463 401.561 206.666 401.561 206.873V208.479L403.391 207.408V205.753C403.39 205.547 403.336 205.344 403.235 205.165C403.133 204.986 402.988 204.837 402.813 204.731L398.959 202.442C398.781 202.347 398.583 202.296 398.381 202.296C398.179 202.296 397.981 202.347 397.803 202.442L393.852 204.779C393.675 204.871 393.527 205.01 393.425 205.182C393.323 205.355 393.27 205.552 393.274 205.753V210.329C393.275 210.536 393.329 210.738 393.431 210.917C393.532 211.096 393.677 211.246 393.852 211.352L397.755 213.64C397.932 213.736 398.131 213.786 398.333 213.786C398.534 213.786 398.733 213.736 398.911 213.64L401.561 212.082L403.391 211.011L406.041 209.453C406.219 209.357 406.418 209.307 406.619 209.307C406.821 209.307 407.02 209.357 407.197 209.453L409.269 210.67C409.445 210.775 409.591 210.925 409.692 211.104C409.794 211.283 409.847 211.486 409.847 211.693V214.127C409.846 214.333 409.792 214.535 409.691 214.714C409.589 214.893 409.444 215.043 409.269 215.149L407.246 216.366C407.068 216.462 406.869 216.512 406.668 216.512C406.466 216.512 406.267 216.462 406.089 216.366L404.018 215.149C403.842 215.044 403.696 214.895 403.594 214.715C403.493 214.536 403.44 214.333 403.44 214.127V212.569L401.609 213.64V215.247C401.61 215.453 401.664 215.655 401.766 215.834C401.867 216.013 402.012 216.163 402.187 216.269L406.089 218.557C406.267 218.653 406.466 218.703 406.668 218.703C406.869 218.703 407.068 218.653 407.246 218.557L411.148 216.269C411.324 216.164 411.47 216.014 411.571 215.835C411.673 215.656 411.726 215.453 411.726 215.247V210.621C411.725 210.415 411.671 210.213 411.569 210.034C411.468 209.855 411.323 209.705 411.148 209.599L407.246 207.311Z" fill="white"/>
<rect x="425" y="231" width="48" height="48" rx="4" fill="white" fill-opacity="0.19" stroke="white" stroke-width="2"/>
<path d="M458.587 252.391C459.015 249.593 456.84 248.088 453.867 247.084L454.832 243.292L452.478 242.718L451.538 246.41C450.92 246.258 450.285 246.116 449.652 245.974L450.598 242.259L448.244 241.684L447.28 245.474C446.768 245.359 446.264 245.247 445.776 245.127L445.779 245.115L442.532 244.32L441.905 246.785C441.905 246.785 443.653 247.177 443.616 247.201C444.569 247.435 444.741 248.053 444.712 248.544L443.614 252.863C443.68 252.879 443.764 252.903 443.86 252.94L443.61 252.879L442.071 258.93C441.954 259.213 441.658 259.639 440.991 259.477C441.015 259.511 439.28 259.059 439.28 259.059L438.111 261.7L441.176 262.449C441.746 262.589 442.304 262.736 442.853 262.874L441.879 266.708L444.232 267.282L445.196 263.49C445.839 263.66 446.463 263.818 447.073 263.967L446.111 267.743L448.465 268.317L449.439 264.49C453.455 265.235 456.473 264.935 457.744 261.376C458.768 258.511 457.694 256.857 455.581 255.779C457.12 255.432 458.278 254.44 458.587 252.391ZM453.207 259.784C452.481 262.651 447.557 261.101 445.96 260.712L447.254 255.632C448.851 256.023 453.968 256.796 453.207 259.784ZM453.936 252.349C453.272 254.957 449.175 253.631 447.847 253.307L449.018 248.701C450.346 249.025 454.628 249.63 453.936 252.349Z" fill="white"/>
<rect x="470" y="145" width="56" height="56" rx="4" fill="white" fill-opacity="0.19" stroke="white" stroke-width="2"/>
<path d="M497.917 153.036V167.896L510.2 173.509L497.917 153.036Z" fill="white" fill-opacity="0.9"/>
<path opacity="0.35" d="M498.077 152.826L485.391 173.5L498.077 167.833V152.826Z" fill="white"/>
<path d="M497.917 183.875V194.072L510.609 176.512L497.917 183.875Z" fill="white" fill-opacity="0.9"/>
<path opacity="0.35" d="M498.077 194.072V183.873L485.391 176.512L498.077 194.072Z" fill="white"/>
<path d="M497.917 180.925L510.6 173.56L497.917 167.896V180.925Z" fill="white"/>
<path d="M485.391 173.56L498.077 180.925V167.896L485.391 173.56Z" fill="white" fill-opacity="0.75"/>
<path d="M45 292C47.2091 292 49 290.209 49 288C49 285.791 47.2091 284 45 284C42.7909 284 41 285.791 41 288C41 290.209 42.7909 292 45 292ZM117.53 145.53C117.823 145.237 117.823 144.763 117.53 144.47L112.757 139.697C112.464 139.404 111.99 139.404 111.697 139.697C111.404 139.99 111.404 140.464 111.697 140.757L115.939 145L111.697 149.243C111.404 149.536 111.404 150.01 111.697 150.303C111.99 150.596 112.464 150.596 112.757 150.303L117.53 145.53ZM45.75 288L45.75 160H44.25L44.25 288H45.75ZM60 145.75H117V144.25H60V145.75ZM45.75 160C45.75 152.13 52.1299 145.75 60 145.75V144.25C51.3015 144.25 44.25 151.302 44.25 160H45.75Z" fill="white"/>
<path d="M498.53 128.53C498.237 128.823 497.763 128.823 497.47 128.53L492.697 123.757C492.404 123.464 492.404 122.99 492.697 122.697C492.99 122.404 493.464 122.404 493.757 122.697L498 126.939L502.243 122.697C502.536 122.404 503.01 122.404 503.303 122.697C503.596 122.99 503.596 123.464 503.303 123.757L498.53 128.53ZM273 54.3823C270.791 54.3823 269 52.5914 269 50.3823C269 48.1731 270.791 46.3823 273 46.3823C275.209 46.3823 277 48.1731 277 50.3823C277 52.5914 275.209 54.3823 273 54.3823ZM497.25 128V16H498.75V128H497.25ZM483 1.75001L289 1.75001V0.250008L483 0.250008V1.75001ZM273.75 17V50.3823H272.25V17H273.75ZM289 1.75001C280.578 1.75001 273.75 8.57767 273.75 17H272.25C272.25 7.74924 279.749 0.250008 289 0.250008V1.75001ZM497.25 16C497.25 8.12995 490.87 1.75001 483 1.75001V0.250008C491.698 0.250008 498.75 7.30152 498.75 16H497.25Z" fill="white"/>
<path d="M192 236.267C189.938 236.267 188.267 237.938 188.267 240C188.267 242.062 189.938 243.733 192 243.733C194.062 243.733 195.733 242.062 195.733 240C195.733 237.938 194.062 236.267 192 236.267ZM283.495 373.495C283.768 373.222 283.768 372.778 283.495 372.505L279.04 368.05C278.767 367.777 278.324 367.777 278.05 368.05C277.777 368.324 277.777 368.767 278.05 369.04L282.01 373L278.05 376.96C277.777 377.233 277.777 377.676 278.05 377.95C278.324 378.223 278.767 378.223 279.04 377.95L283.495 373.495ZM191.3 240L191.3 357L192.7 357L192.7 240L191.3 240ZM208 373.7L283 373.7L283 372.3L208 372.3L208 373.7ZM191.3 357C191.3 366.223 198.777 373.7 208 373.7L208 372.3C199.55 372.3 192.7 365.45 192.7 357L191.3 357Z" fill="white"/>
<g style="mix-blend-mode:darken">
<circle cx="45" cy="349" r="45" fill="#A410FF"/>
</g>
<path d="M32.3751 344.088C32.3751 343.708 32.4883 343.404 32.7147 343.178C32.9412 342.951 33.2551 342.838 33.6566 342.838H36.4358V340.136C36.4358 339.745 36.5439 339.436 36.7601 339.209C36.9762 338.983 37.2748 338.87 37.6556 338.87C38.0365 338.87 38.335 338.983 38.5511 339.209C38.7673 339.436 38.8754 339.745 38.8754 340.136V342.838H41.4848C41.9171 342.838 42.2517 342.951 42.4884 343.178C42.7355 343.404 42.859 343.708 42.859 344.088C42.859 344.49 42.7355 344.809 42.4884 345.046C42.2517 345.272 41.9171 345.385 41.4848 345.385H38.8754V348.088C38.8754 348.479 38.7673 348.793 38.5511 349.029C38.335 349.256 38.0365 349.369 37.6556 349.369C37.2748 349.369 36.9762 349.256 36.7601 349.029C36.5439 348.793 36.4358 348.479 36.4358 348.088V345.385H33.6566C33.2551 345.385 32.9412 345.272 32.7147 345.046C32.4883 344.809 32.3751 344.49 32.3751 344.088ZM47.5528 346.25C47.5528 345.622 47.769 345.092 48.2013 344.66C48.6336 344.227 49.1586 344.011 49.7762 344.011C50.4041 344.011 50.9291 344.227 51.3511 344.66C51.7834 345.092 51.9996 345.622 51.9996 346.25C51.9996 346.878 51.7834 347.408 51.3511 347.84C50.9291 348.263 50.4041 348.474 49.7762 348.474C49.1586 348.474 48.6336 348.263 48.2013 347.84C47.769 347.408 47.5528 346.878 47.5528 346.25ZM52.1077 341.68C52.1077 341.052 52.3187 340.522 52.7407 340.089C53.1731 339.657 53.698 339.441 54.3156 339.441C54.9435 339.441 55.4685 339.657 55.8905 340.089C56.3229 340.522 56.539 341.052 56.539 341.68C56.539 342.308 56.3229 342.833 55.8905 343.255C55.4685 343.677 54.9435 343.888 54.3156 343.888C53.698 343.888 53.1731 343.677 52.7407 343.255C52.3187 342.833 52.1077 342.308 52.1077 341.68ZM28.4687 361.181C29.5289 361.181 30.4399 360.985 31.2016 360.594C31.9736 360.203 32.6839 359.606 33.3323 358.803L36.127 355.422C36.3329 355.175 36.5491 354.994 36.7755 354.881C37.002 354.768 37.2284 354.711 37.4549 354.711H52.293C52.5194 354.711 52.7459 354.768 52.9723 354.881C53.1988 354.994 53.415 355.175 53.6208 355.422L56.4155 358.803C57.064 359.606 57.7691 360.203 58.5308 360.594C59.3028 360.985 60.219 361.181 61.2792 361.181C62.4526 361.181 63.482 360.934 64.3672 360.44C65.2525 359.956 65.937 359.266 66.4208 358.371C66.9149 357.475 67.1619 356.425 67.1619 355.221C67.1619 354.449 67.0744 353.62 66.8994 352.735C66.7347 351.85 66.5031 350.908 66.2046 349.909C65.8958 348.849 65.515 347.696 65.062 346.451C64.6091 345.205 64.1202 343.95 63.5952 342.683C63.0805 341.407 62.5607 340.213 62.0358 339.101C61.5931 338.175 61.1763 337.403 60.7851 336.785C60.3939 336.168 59.8947 335.663 59.2874 335.272C58.6904 334.881 57.8463 334.562 56.7552 334.315C55.3038 333.985 53.5797 333.718 51.5827 333.512C49.5858 333.306 47.3521 333.203 44.8816 333.203C42.4112 333.203 40.1724 333.306 38.1651 333.512C36.1682 333.718 34.444 333.985 32.9927 334.315C31.9016 334.562 31.0523 334.881 30.445 335.272C29.848 335.663 29.3539 336.168 28.9628 336.785C28.5716 337.403 28.1547 338.175 27.7121 339.101C27.1871 340.213 26.6622 341.407 26.1372 342.683C25.6225 343.95 25.1387 345.205 24.6858 346.451C24.2329 347.696 23.852 348.849 23.5432 349.909C23.2447 350.908 23.008 351.85 22.833 352.735C22.6683 353.62 22.5859 354.449 22.5859 355.221C22.5859 356.425 22.8278 357.475 23.3116 358.371C23.8057 359.266 24.4954 359.956 25.3806 360.44C26.2659 360.934 27.2952 361.181 28.4687 361.181Z" fill="white"/>
<path d="M337 372.332L346.276 376.094V373.241L337.27 369.76V371.613L346.276 368.143V365.324L337 369.086V372.332Z" fill="white"/>
<path d="M355.466 361H352.647L350.019 381.204H352.838L355.466 361Z" fill="white"/>
<path d="M368.497 369.086L359.22 365.75V368.625L368.306 371.703V369.771L359.22 372.837V375.667L368.497 372.332V369.086Z" fill="white"/>
<defs>
<linearGradient id="paint0_linear_17_32" x1="286.5" y1="71" x2="286.5" y2="498" gradientUnits="userSpaceOnUse">
<stop stop-color="white"/>
<stop offset="1" stop-color="#D739FF"/>
</linearGradient>
<linearGradient id="paint1_linear_17_32" x1="207" y1="27" x2="207.5" y2="273" gradientUnits="userSpaceOnUse">
<stop stop-color="white"/>
<stop offset="1" stop-color="#041DFF"/>
</linearGradient>
</defs>
</svg>
